<svg xmlns="http://www.w3.org/2000/svg" version="1.1" xmlns:xlink="http://www.w3.org/1999/xlink" xmlns:svgjs="http://svgjs.dev/svgjs" width="2000" height="2242" viewBox="0 0 2000 2242"><g transform="matrix(1,0,0,1,-3.1152519873138544,0)"><svg viewBox="0 0 321 360" data-background-color="#5d3c94" preserveAspectRatio="xMidYMid meet" height="2242" width="2000" xmlns="http://www.w3.org/2000/svg" xmlns:xlink="http://www.w3.org/1999/xlink"><g id="tight-bounds" transform="matrix(1,0,0,1,0.5000020560361236,0)"><svg viewBox="0 0 320 360" height="360" width="320"><g><svg></svg></g><g><svg viewBox="0 0 320 360" height="360" width="320"><g><path transform="translate(-15.58119,4.24857) scale(3.51065,3.51065)" d="M51.5 85.2c-0.4-0.5-0.8-0.2-0.8-0.5-2.4 0.6-6.9-1-8.8-0.8 0.4-0.6-0.6-0.5-0.6-0.9-0.4 0.6-0.8 0-1.4 0.2-0.6-1.5-3-0.4-3.3-2.3-1.4 0-1.9-0.8-3.3-1.6 0.1-0.1 0.2-0.1 0.3-0.2-0.7-0.1-0.7-0.5-1.3-0.5l0.2-0.4c-1.1-0.2-1.5-1.9-3.1-2.5-0.5-0.1-1.6-1.8-2.2-2.2-0.3-0.2-0.8-0.2-0.1-0.3-0.1-0.1-0.1-0.3 0-0.4-0.7-0.2-0.8-0.8-1.7-1.1-0.1-0.3 0.2-0.5 0-0.7-0.2-0.1-0.5 0.1-0.7 0-0.1 1.8 1.9 2 2.5 3.5-0.2-0.2-0.5-0.8-0.7-0.4-0.1 0.3 0.8 1.4 0.8 0.8-0.3 0.2-0.4-0.3-0.2-0.4 0.3 0.5 0.9 0.4 0.9 0.8-0.3 0.3-0.7-0.3-0.6 0.2 0.9 0.5 0.8 1 1.3 1.7-0.4-0.5-0.5 0.4-0.9 0-0.1-1.5-1.8-1.2-1.8-2.7-0.2-0.5-0.4-0.1-0.7-0.3 0.4-0.4-1.2-1.8-1.2-1.3-0.5-0.6-0.2-0.8-0.3-1.2-0.4-0.1-0.1 0.4-0.4 0.1 0.4-0.7-0.5-1.6-1.1-2.3l0.4-0.2c-0.7-0.4-0.8-1.2-1.3-2.1-0.6 0.9 1.2 2.9 0.9 3.3 0 0.1 0.7 0.9 0.9 1.3 0.8 1.4 1.4 3.1 2.5 3.9-0.2-0.1-0.1-0.7 0.2-0.4 0 0.3-0.2 0.6-0.2 0.9 0.6 0.6 1.1 1.1 1.7 1.7-1.3-0.8-2.6-1.6-3.5-2.8 0.5-0.1 1 0.8 1.4 0.7-1-0.8-0.7-1.1-1.1-2.1-0.4-0.3 0.1 0.4-0.3 0.5-1.3-1.2-2.3-1.9-2.9-3 0.1-0.1 0.2-0.2 0.2-0.4-0.1-0.1-0.1-0.1-0.2-0.2 0.6 0.6 0.8 1.1 1.5 1.2-0.3-0.3 0-0.4-0.4-0.7-0.2-0.4-0.5 0.2-0.7-0.1 0.2-0.3 0-0.7 0-1-0.2 0-0.4 0-0.5-0.3-0.2-0.1-0.3 0-0.4 0.2-0.1-0.1-0.1-0.3-0.2-0.4v-0.1c-0.1-0.1-0.2-0.3-0.3-0.4-0.8-2.1-1.3-4.9-2.4-6.7 0.3-1.2-0.2-3.6-0.5-4.2 0.3-0.5 0.1-2.8-0.1-3.2-0.5 0.2 0.1 1.3-0.4 1.6-0.5-2.2 0.3-4.7 0.1-6.7 0.2 0 0.4 0 0.4-0.1-0.3-0.3 0.2-0.9 0.1-1.6 0.4-0.9-0.9 1.3-0.9 2.2-0.1 0.2-0.5 0-0.4 0.5 0 0.7 0.2 2.1-0.2 3.1-0.2 0-0.2-0.2-0.4-0.1-0.1 0.5-0.2 1.1-0.3 1.6-0.1-0.2-0.2-0.5-0.2-0.6-0.5-2.5 0-5.4-0.2-7.5 0.4 0 0.4-0.6 0.7-0.8-0.1 0.8-0.3 1.8 0.2 2 0.4-3.9 1.2-8.2 3-12.4 1.3-3.1 3.2-6.2 5.5-8.7 0.2 0.3-0.1 1 0 1.3 2-2.1 3.3-4.6 5.5-6 0.1 0.5-0.9 0.9-0.9 1.3 0.9-0.9 1.2-0.6 2.2-0.9 0.3-0.4-0.4 0-0.5-0.4 0.6-0.4 1-0.9 1.4-1.2 0 0.1-0.1 0.1-0.1 0.2 1.1-0.3 1.2-0.9 2-1.1-0.1-0.1-0.3-0.2-0.6-0.1 0.2-0.1 0.5-0.3 0.8-0.4-0.1 0-0.1 0.1-0.2 0.1 0.6-0.3 0.1 0.1 0.1 0.3 0.1 0 0.2-0.1 0.2-0.1-0.6 0.4-1 0.6-1.2 1.3 0.3-0.2 0.4 0 0.8-0.3 0.4-0.2-0.1-0.5 0.2-0.7 0.3 0.2 0.7 0.1 1 0.1 0-0.2 0.1-0.4 0.3-0.5 0.1-0.2 0-0.3-0.1-0.3 0.1-0.1 0.2-0.1 0.4-0.2 0 0 0.1 0 0.1 0.1 1.7-0.8 3.6-1.5 5.4-2.1 1.1-0.1 2.5-0.1 3.1-0.8-0.2 0-0.4 0.1-0.5 0 0.1 0 0.3-0.1 0.4-0.1 0.2 0.2 0.5 0 0.2 0.4 0.1 0 0.1 0 0.2-0.1 0 0.1 0 0.1 0.1 0.2 0.1 0 0.2-0.1 0.3-0.3 0.1 0 0.2 0 0.3-0.1l-0.1 0.1c0.8-0.2 1.5-0.1 2.6-0.3 0-0.1 0-0.2 0-0.3 0.2 0 0.3-0.1 0.5-0.1v0.1c0.4-0.2 0.8 0.2 0.8 0 0.1 0 0.1 0 0.2 0 0 0.2-0.1 0.3-0.1 0.4 0.5 0 0.8 0 1-0.3-0.1-0.1-0.2-0.1-0.3-0.1 0.2 0 0.4-0.1 0.6-0.2 0.3 0.1 0.4 0.2 0.4 0.6 0.5-0.9 2.1 0.2 2.8 0 0.3 0 0.2-0.4 0.4-0.6 0.1 0 0.2 0 0.3 0 0.5 0.4 1.2 0.8 2.1 0.9-0.8-0.2 0.1-0.3 0.2-0.4-0.2 0-0.2-0.1-0.2-0.2 0.3 0 0.6 0.1 0.9 0.1 0 0.2 0.1 0.3 0.3 0.3 0.2 0 0.2-0.1 0.2-0.3 0.3 0 0.5 0 0.8 0.1-0.1 0.4 0.5 0.5 0.7 0.8-0.8-0.2-1.7-0.5-2 0 3.2 0.7 6.7 1.7 10.1 3.4 0 0 0 0 0 0.1h0.1c0.6 0.3 1.2 0.6 1.8 0.9 0.4 0.2 0.7 0.4 1.1 0.7 0 0.1 0 0.2 0.2 0.2h0.1c0.4 0.3 0.8 0.5 1.2 0.8 0.4 0.6 0.8 1.4 1.5 1.2 1.5 2.3 3.1 3.2 4.4 5.6 0.1-0.4 0.4 0.9 0.9 1-0.8-0.1 0.5 0.5-0.3 0.4 0.7 0.7 0.9 1 1 1.8-0.2-0.4-0.3-0.5-0.4-0.1-0.1 0.6 0.7-0.1 1 0.5-0.6 0-0.4 0.4-0.3 0.9 0.3-0.3 0.2-0.6 0.5-0.5 0.4 0.4-0.2 0.5-0.1 0.8 0.3-0.4 0.4-0.2 0.8 0-0.5 0.1 0.3 0.8-0.3 0.5 0.4 0.5 0.5 0.8 0.3 1.3-0.4-0.6-0.1-1-0.7-0.9 1.2 1 0.6 3.3 2 3.5-0.9 0.2 0 0.6-0.5 0.7 0.6 0.2 0.3 1 1 1.2-0.1 0.5-0.3 0.8-0.4 1.3 0.3 0.4 0.4 1.2 0.9 1.3-0.3 0.3-0.1 1.1-0.4 1.4 0.4-0.2 0.6-0.2 0.9 0.2-0.5 0.4-0.1 0.8-0.4 0.9 0.9 2.3-0.2 7 0.3 8.8-0.6-0.3-0.4 0.7-0.8 0.7 0.7 0.3 0.1 0.8 0.4 1.3-1.4 0.8 0 3-1.9 3.5 0.2 1.4-0.6 2-1.2 3.5-0.1-0.1-0.1-0.2-0.2-0.3-0.1 0.7-0.5 0.8-0.3 1.4l-0.4-0.2c0 1.1-1.7 1.7-2.1 3.4-0.1 0.5-1.6 1.8-2 2.5-0.2 0.3-0.1 0.8-0.3 0.1-0.1 0.1-0.3 0.1-0.4 0.1-0.1 0.7-0.7 0.9-0.9 1.8-0.2 0.1-0.5-0.2-0.7 0.1 0 0.2 0.2 0.5 0.1 0.7 1.8-0.1 1.8-2.2 3.2-2.9-0.1 0.3-0.7 0.6-0.3 0.8 0.3 0 1.2-1 0.7-0.9 0.3 0.2-0.3 0.4-0.4 0.3 0.5-0.4 0.3-0.9 0.7-1 0.3 0.2-0.3 0.7 0.3 0.6 0.4-0.9 0.9-1 1.5-1.5-0.4 0.4 0.5 0.5 0.1 0.9-1.5 0.3-1 2-2.5 2.2-0.4 0.3-0.1 0.4-0.2 0.7-0.5-0.3-1.6 1.4-1.2 1.3-0.5 0.5-0.8 0.3-1.2 0.4-0.1 0.4 0.4 0.1 0.2 0.4-0.7-0.3-1.6 0.7-2.2 1.4l-0.3-0.3c-0.3 0.8-1.1 0.9-2 1.5 1 0.5 2.7-1.6 3.2-1.3 0.1 0 0.9-0.8 1.2-1.1 1.3-1 2.9-1.8 3.5-2.9-0.1 0.2-0.7 0.2-0.4-0.1 0.3-0.1 0.6 0.1 0.9 0.1 1.6-2.2 3.6-4 5.1-6.6 0.1-0.1 0.2-0.3 0.3-0.5-0.2 0.6-0.5 1.1-0.7 1.7-1.6 1.1-2.2 4.3-4.1 4.8 0.1 1.1-0.9 1.4-1.4 2.7-0.3 0.4-0.5-0.3-0.8 0.2 0.3 1.4-2.5 1.3-2.4 2.6-0.2 0.1-0.5 0.2-0.7 0.4h-0.1c-0.1 0.1-0.1 0.1-0.2 0.2-0.5 0.3-0.9 0.6-1.3 0.9-1.4 0.8-3.3 1.4-4.8 2.2v-0.1c-0.4 0.2-0.9 0.1-0.8 0.5-0.3 0.2-0.6 0.4-0.9 0.6-0.1 0-0.1 0-0.2 0 0 0-0.1-0.1-0.2-0.1-0.2 0-0.2 0-0.3 0.1-1.3 0.1-3 0.7-3.5 1.1-0.5-0.3-2.8 0.2-3.2 0.4 0.2 0.3 0.8 0 1.3 0-0.3 0.1-0.6 0.2-0.7 0.4-0.1 0-0.1 0-0.2 0-0.1-0.3-0.4 0-0.5-0.1h0.1c-0.1-0.4-0.4-0.6-0.9-0.5 0 0.2 0 0.3-0.1 0.5 0.2 0 0.8-0.3 0.8 0-0.1 0-0.1 0.1 0 0.1-0.2 0.2-0.5 0.2-0.7 0.3-0.4 0-0.9 0-1.3 0-0.1-0.1-0.2-0.1-0.4-0.2-0.1 0.1-0.3 0.1-0.4 0.2-0.6 0-1.3 0.1-1.8 0.2 0-0.2 0-0.4-0.2-0.4-0.3 0.4-0.9-0.1-1.6 0.1-0.7-0.2 0.4 0.3 1.4 0.5-0.1 0.1-0.2 0.2-0.5 0.3M37.5 86.6c-1.4-1.3-4.3-1.9-4.8-2.9-0.8-0.1-2-1.6-3-1.8 0.5 0 0.1-0.3 0-0.5-0.2 0.2-0.4 0.3-0.6 0.3 0-0.8-0.8-1.3-1.5-1.8 0.5 0.3 0.9 0.5 1.5 0.6 0-0.2 0-0.4 0.2-0.4 0.7 0.7 1.5 1.4 2.4 2.1 1.2 1.1 7.4 3.9 8.5 4.4 0 0-0.2 0.4-0.1 0.4 0.5 0.3 0.9-0.3 1 0.4-1.6 0.2-2.2-0.9-3.6-0.8M83.6 63.4v0.1 0c-0.1 0 0-0.1 0-0.1M43.2 17.1c-0.1 0.1-0.2 0.1-0.2 0.1 0-0.1 0.1-0.1 0.2-0.1M41.3 17.6c0 0.1 0 0.1 0 0 0 0.1 0 0.1 0 0 0 0.1 0 0 0 0M34.7 19.7v0c0.1-0.1 0.1-0.1 0.2-0.1-0.1 0-0.2 0.1-0.2 0.1M50.7 16.4c-0.2 0-0.3 0-0.4-0.1 0.1 0 0.2 0 0.3 0h0.1c0 0 0 0 0 0.1M52.5 16.6c-0.1-0.1-0.4-0.2-0.7-0.2 0-0.1 0.1-0.2 0.1-0.2 0.1 0 0.2 0 0.3 0 0 0 0.1 0 0.1 0.1 0 0 0 0 0-0.1 0.1 0 0.1 0 0.2 0 0.1 0.2 0.2 0.3 0 0.4M55.8 16.9c-0.5 0.1-0.8-0.1-1.3-0.4 0.3 0 0.7 0.1 1 0.2 0.1 0 0.2 0.1 0.3 0.2M91.4 31.1c-0.2 0.1-0.3 0.1-0.5-0.3-1.6-3.4-4.5-8.3-8.7-12.4-4.1-4.2-9.6-7.6-14.6-9.4 0.3 0.1 0.7 0.3 0.5 0.5-4.4-1.7-8.6-2.7-12.6-3.1-10.8-1.7-22.1 0.6-30.8 6.2 0.1 0.2 0.1 0.3-0.2 0.5-3.2 2-7.7 5.5-11.3 10.1-3.6 4.6-6.4 10.4-7.6 15.6 0.1-0.3 0.2-0.8 0.4-0.6-2.6 10.3-1.9 19.1 1.7 26.7 0.2-0.2-0.5-1.2 0.1-1.1 0.4 1.1 0.9 2.3 1.5 3.4 0.7 1.6 1.5 3.7 2.6 4.2-2.8-5.5-4.7-11.8-4.9-17.4 0.4 0.8 0.3 2.5 0.9 3.2 0.2-3.8-0.7-8.9 0.6-12.5-0.3 1.9-0.5 4.5-0.3 7.1 0 1.9 0.9 7.2 1.5 7.7-0.1-0.1-0.1-0.6 0-0.6 0.3 0.6-0.4 0.9 0.1 1 0-0.2 0.1-0.2 0.2-0.2 1 2.2 2.3 5.6 3.3 7.3 1.2 2.2 2.8 4.2 4.6 6 0 0.1 0.1 0.1 0.1 0.2 0.2 0.5 0.9 1.1 1.1 1.5 0.1 0.2-0.1 0.5 0 0.7 1.5 2.8 3.7 5.6 6.4 7.8 1.7 2 4.4 4.1 7.7 5.9 3.2 1.7 6.9 3.1 10.3 3.9 2.4 0.6 5.3 0.7 7.1 1.1 2.4 0.5 6.6-0.2 8.7-0.6 12.6-1.9 25.1-10.5 31.4-22.9 6.5-12.5 6.3-27.8 0.7-39.5" fill="#e9eeb8" fill-rule="nonzero" stroke="none" stroke-width="1" stroke-linecap="butt" stroke-linejoin="miter" stroke-miterlimit="10" stroke-dasharray="" stroke-dashoffset="0" font-family="none" font-weight="none" font-size="none" text-anchor="none" style="mix-blend-mode: normal" data-fill-palette-color="tertiary"></path></g><g transform="matrix(1,0,0,1,81.00566836998132,108)"><svg viewBox="0 0 157.98866326003736 144" height="144" width="157.98866326003736"><g><svg viewBox="0 0 160 145.83324856719565" height="144" width="157.98866326003736"><g transform="matrix(1,0,0,1,0,49.539931939108556)"><svg viewBox="0 0 160 96.29331662808711" height="96.29331662808711" width="160"><g id="textblocktransform"><svg viewBox="0 0 160 96.29331662808711" height="96.29331662808711" width="160" id="textblock"><g><svg viewBox="0 0 160 71.52034261241971" height="71.52034261241971" width="160"><g transform="matrix(1,0,0,1,0,0)"><svg width="160" viewBox="1.05 -41.05 93.39 41.75" height="71.52034261241971" data-palette-color="#f9d264"><path d="M28.25-3Q28.75-1.35 29.55-0.5L29.55-0.5Q28.6 0.55 26.85 0.55L26.85 0.55Q25.75 0.55 24.98 0.08 24.2-0.4 24-1.25L24-1.25 21.15-10.85 8.4-10.85 6.1-2.9Q5.8-1.7 5.8-1.15L5.8-1.15Q5.8-0.3 6.15 0.1L6.15 0.1Q4.9 0.55 3.65 0.55L3.65 0.55Q2.3 0.55 1.68 0.08 1.05-0.4 1.05-1.45L1.05-1.45Q1.05-2.3 1.6-3.95L1.6-3.95 12-34.65Q13.8-35.35 15.8-35.35L15.8-35.35Q18-35.35 18.45-33.75L18.45-33.75 28.25-3ZM9.2-13.5L20.35-13.5 14.7-32.4 9.2-13.5ZM8.6-41.05L21.7-41.05Q21.9-40.5 21.9-39.9L21.9-39.9Q21.9-39.25 21.7-38.7L21.7-38.7 8.6-38.7Q8.4-39.25 8.4-39.9L8.4-39.9Q8.4-40.5 8.6-41.05L8.6-41.05ZM43.65 0.7Q38.05 0.7 35.2-1.38 32.35-3.45 32.35-6.65L32.35-6.65Q32.35-9.75 35.35-9.75L35.35-9.75Q35.6-9.75 36.4-9.65L36.4-9.65Q36.25-9.05 36.25-8.3L36.25-8.3Q36.25-7.75 36.3-7.45L36.3-7.45Q36.5-4.7 38.57-3 40.65-1.3 44.2-1.3L44.2-1.3Q47.3-1.3 49.2-2.83 51.1-4.35 51.1-7.2L51.1-7.2Q51.1-9.05 50.25-10.45 49.4-11.85 47.8-13.03 46.2-14.2 43.35-15.8L43.35-15.8Q39.85-17.75 37.87-19.2 35.9-20.65 34.75-22.53 33.6-24.4 33.6-27L33.6-27Q33.6-31.2 36.65-33.27 39.7-35.35 44.45-35.35L44.45-35.35Q49-35.35 51.77-33.73 54.55-32.1 54.55-29.25L54.55-29.25Q54.55-26.95 52.25-26.75L52.25-26.75Q52.05-26.7 51.55-26.7L51.55-26.7Q50.95-26.7 50.65-26.8L50.65-26.8Q50.7-27.05 50.7-27.6L50.7-27.6Q50.7-28.4 50.55-29.05L50.55-29.05Q50.3-31.1 48.52-32.25 46.75-33.4 43.95-33.4L43.95-33.4Q41.45-33.4 39.67-32.25 37.9-31.1 37.9-28.5L37.9-28.5Q37.9-26.65 38.77-25.28 39.65-23.9 41.27-22.75 42.9-21.6 45.85-19.95L45.85-19.95Q48.95-18.3 51.02-16.8 53.1-15.3 54.35-13.25 55.6-11.2 55.6-8.55L55.6-8.55Q55.6-6.05 54.37-3.95 53.15-1.85 50.45-0.58 47.75 0.7 43.65 0.7L43.65 0.7ZM82.95-34.7Q83.7-34.7 83.7-33.45L83.7-33.45Q83.7-32.6 83.32-31.78 82.95-30.95 82.4-30.7L82.4-30.7 81.25-31Q78.75-31.7 76.97-32.1 75.2-32.5 73.4-32.65L73.4-32.65 73.45-6Q73.45-2.3 74.15-0.45L74.15-0.45Q73.75-0.05 73.07 0.28 72.4 0.6 71.55 0.6L71.55 0.6Q70.34 0.6 69.62-0.08 68.9-0.75 68.9-1.9L68.9-1.9 68.84-32.7Q65.55-32.35 59.9-30.7L59.9-30.7Q59.34-30.95 58.97-31.78 58.59-32.6 58.59-33.45L58.59-33.45Q58.59-34 58.8-34.35 59-34.7 59.4-34.7L59.4-34.7 82.95-34.7ZM91.79 0.6Q90.59 0.6 89.87-0.08 89.14-0.75 89.14-1.9L89.14-1.9 89.14-28.6Q89.14-32.1 88.44-34.2L88.44-34.2Q88.84-34.6 89.52-34.9 90.19-35.2 91.04-35.2L91.04-35.2Q92.24-35.2 92.99-34.55 93.74-33.9 93.74-32.75L93.74-32.75 93.74-6Q93.74-2.3 94.44-0.45L94.44-0.45Q93.24 0.6 91.79 0.6L91.79 0.6Z" opacity="1" transform="matrix(1,0,0,1,0,0)" fill="#f9d264" class="wordmark-text-0" data-fill-palette-color="primary" id="text-0"></path></svg></g></svg></g><g transform="matrix(1,0,0,1,31.200000000000003,88.40457901498931)"><svg viewBox="0 0 97.6 7.888737613097803" height="7.888737613097803" width="97.6"><g transform="matrix(1,0,0,1,0,0)"><svg width="97.6" viewBox="4 -35.35 580.19 46.900000000000006" height="7.888737613097803" data-palette-color="#f9d264"><path d="M23.45-4.1Q23.9-3.85 24.13-3.2 24.35-2.55 24.35-1.85L24.35-1.85Q24.35-1.05 24.05-0.53 23.75 0 23.2 0L23.2 0 7.35 0Q6.15 0 5.43-0.65 4.7-1.3 4.7-2.5L4.7-2.5 4.7-28.1Q4.7-31.45 4-33.5L4-33.5Q4.75-34.2 5.6-34.45 6.45-34.7 7.95-34.7L7.95-34.7 22.95-34.7Q23.75-34.7 23.75-33.4L23.75-33.4Q23.75-32.6 23.38-31.78 23-30.95 22.45-30.7L22.45-30.7Q15.95-32.1 9.2-32.25L9.2-32.25 9.25-19.5 21.2-19.5Q21.35-18.85 21.35-18.2L21.35-18.2Q21.35-17.45 21.2-16.85L21.2-16.85 9.25-16.85 9.3-2.4Q12.65-2.45 16.53-2.95 20.4-3.45 23.45-4.1L23.45-4.1ZM50.1-4.8Q50.85-4.55 51.32-3.95 51.8-3.35 51.8-2.5L51.8-2.5Q51.8-1.2 50.72-0.25 49.65 0.7 47.85 0.7L47.85 0.7Q46 0.7 44.9-0.4 43.8-1.5 42.45-3.95L42.45-3.95 39.05-10 33.15-0.7Q32.45 0.65 30.85 0.65L30.85 0.65Q29.85 0.65 29.15 0 28.45-0.65 28.3-2.1L28.3-2.1Q29.5-2.5 30.47-3.4 31.45-4.3 32.5-5.85L32.5-5.85 37.4-12.85 33.2-20.15Q32.65-21.15 32.15-21.6 31.65-22.05 31.1-22.05L31.1-22.05Q30.45-22.05 30.05-21.63 29.65-21.2 29.6-20.6L29.6-20.6Q28.8-20.85 28.35-21.45 27.9-22.05 27.9-22.9L27.9-22.9Q27.9-24.2 28.95-25.18 30-26.15 31.95-26.15L31.95-26.15Q33.75-26.15 34.77-25.13 35.8-24.1 37.25-21.45L37.25-21.45 40.2-16.05 45.75-24.7Q46.55-26.15 48.15-26.15L48.15-26.15Q50.45-26.15 50.75-23.35L50.75-23.35Q49.5-22.9 48.55-21.98 47.6-21.05 46.55-19.55L46.55-19.55 41.85-13.2 46.45-5.25Q47.5-3.35 48.7-3.35L48.7-3.35Q49.25-3.35 49.65-3.8 50.05-4.25 50.1-4.8L50.1-4.8ZM69.8-26.15Q74.59-26.15 76.55-22.58 78.5-19 78.5-13.85L78.5-13.85Q78.5-6.95 75.7-3.15 72.9 0.65 67.9 0.65L67.9 0.65Q65.45 0.65 63.7-0.33 61.95-1.3 61.2-3.1L61.2-3.1 61.2 2.2Q61.2 7.35 61.95 10.05L61.95 10.05Q61.55 10.45 60.87 10.75 60.2 11.05 59.35 11.05L59.35 11.05Q58.2 11.05 57.45 10.4 56.7 9.75 56.7 8.6L56.7 8.6 56.75-19.9Q56.75-21.3 56.42-21.88 56.1-22.45 55.35-22.45L55.35-22.45Q54.4-22.45 54.05-21.75L54.05-21.75Q53.45-22.65 53.45-23.45L53.45-23.45Q53.45-24.55 54.32-25.25 55.2-25.95 56.65-25.95L56.65-25.95Q60.9-25.95 61-19.3L61-19.3Q62.2-22.55 64.4-24.35 66.59-26.15 69.8-26.15L69.8-26.15ZM66.84-1.9Q70.2-1.9 71.92-4.93 73.65-7.95 73.65-13.85L73.65-13.85Q73.65-18.2 72.59-20.83 71.55-23.45 68.55-23.45L68.55-23.45Q66.3-23.45 64.65-21.65 63-19.85 62.12-16.9 61.25-13.95 61.25-10.5L61.25-10.5Q61.25-6.45 62.5-4.17 63.75-1.9 66.84-1.9L66.84-1.9ZM103.19-6.6Q103.94-6.3 103.94-5.45L103.94-5.45Q103.94-4.9 103.59-4.05L103.59-4.05Q102.69-1.75 100.29-0.55 97.89 0.65 94.59 0.65L94.59 0.65Q89.04 0.65 85.87-2.8 82.69-6.25 82.69-12.65L82.69-12.65Q82.69-18.95 85.84-22.55 88.99-26.15 94.79-26.15L94.79-26.15Q98.99-26.15 101.57-24.25 104.14-22.35 104.14-18.85L104.14-18.85Q104.14-15.15 101.14-13.2 98.14-11.25 92.89-11.25L92.89-11.25Q90.24-11.25 87.59-11.55L87.59-11.55Q88.19-2.35 95.74-2.35L95.74-2.35Q98.44-2.35 100.42-3.48 102.39-4.6 103.19-6.6L103.19-6.6ZM94.59-24.25Q91.34-24.25 89.47-21.45 87.59-18.65 87.54-13.4L87.54-13.4Q88.59-13.3 90.89-13.2L90.89-13.2Q94.69-13.2 96.99-14.58 99.29-15.95 99.29-19.5L99.29-19.5Q99.29-22.1 97.94-23.18 96.59-24.25 94.59-24.25L94.59-24.25ZM121.44-26.15Q124.04-26.15 125.67-24.73 127.29-23.3 127.29-20.85L127.29-20.85Q127.29-19.1 126.29-18 125.29-16.9 123.89-16.9L123.89-16.9Q122.64-16.9 122.09-17.55L122.09-17.55Q122.64-18.4 122.84-19.1 123.04-19.8 123.04-20.75L123.04-20.75Q123.04-23.75 120.29-23.75L120.29-23.75Q118.14-23.75 116.72-20.85 115.29-17.95 115.29-12L115.29-12Q115.29-5.85 115.39-3.93 115.49-2 116.04-0.55L116.04-0.55Q115.64-0.15 114.97 0.15 114.29 0.45 113.39 0.5L113.39 0.5Q112.29 0.5 111.54-0.23 110.79-0.95 110.79-2.2L110.79-2.2 110.79-20.05Q110.79-21.4 110.47-22 110.14-22.6 109.39-22.6L109.39-22.6Q108.44-22.6 108.09-21.9L108.09-21.9Q107.49-22.75 107.49-23.55L107.49-23.55Q107.49-24.7 108.34-25.4 109.19-26.1 110.69-26.1L110.69-26.1Q112.69-26.1 113.77-24.68 114.84-23.25 114.79-20.5L114.79-20.5Q115.64-23.25 117.34-24.7 119.04-26.15 121.44-26.15L121.44-26.15ZM139.44-25.45Q140.29-25.45 141.74-25.5 143.19-25.55 144.04-25.6L144.04-25.6 143.99-24.4Q143.94-23.8 143.59-23.48 143.24-23.15 142.74-23.15L142.74-23.15 137.79-23.15 137.79-21.35 137.74-5.65Q137.74-2.95 140.14-2.95L140.14-2.95Q140.84-2.95 141.51-3.2 142.19-3.45 142.39-3.9L142.39-3.9Q142.99-3.1 142.99-2.2L142.99-2.2Q142.99-0.95 141.74-0.2 140.49 0.55 138.49 0.55L138.49 0.55Q136.04 0.55 134.64-1 133.24-2.55 133.24-5.3L133.24-5.3 133.24-23.15 132.49-23.15Q130.49-23.15 129.49-23L129.49-23 129.54-24.25Q129.59-24.85 129.94-25.15 130.29-25.45 130.84-25.45L130.84-25.45 133.24-25.45 133.24-29.65Q133.24-30.8 133.96-31.45 134.69-32.1 135.89-32.1L135.89-32.1Q137.29-32.1 138.44-31.1L138.44-31.1Q137.89-29.2 137.84-25.45L137.84-25.45 139.44-25.45ZM168.08-35.35Q175.43-35.35 179.01-32.88 182.58-30.4 182.58-25.1L182.58-25.1Q182.58-19.5 178.71-16.63 174.83-13.75 167.23-13.75L167.23-13.75 165.93-13.75 165.93-5.8Q165.93-4.5 166.08-2.98 166.23-1.45 166.63-0.45L166.63-0.45Q166.23-0.05 165.53 0.28 164.83 0.6 163.98 0.6L163.98 0.6Q162.78 0.6 162.06-0.08 161.33-0.75 161.33-1.9L161.33-1.9 161.33-28.6Q161.33-29.75 161.16-31.43 160.98-33.1 160.63-34.2L160.63-34.2Q163.03-35.35 168.08-35.35L168.08-35.35ZM167.28-15.65Q172.63-15.65 175.11-17.98 177.58-20.3 177.58-24.8L177.58-24.8Q177.58-29.1 175.31-31.25 173.03-33.4 167.98-33.4L167.98-33.4Q166.38-33.4 165.93-33.3L165.93-33.3 165.93-15.65 167.28-15.65ZM199.98-26.15Q202.58-26.15 204.21-24.73 205.83-23.3 205.83-20.85L205.83-20.85Q205.83-19.1 204.83-18 203.83-16.9 202.43-16.9L202.43-16.9Q201.18-16.9 200.63-17.55L200.63-17.55Q201.18-18.4 201.38-19.1 201.58-19.8 201.58-20.75L201.58-20.75Q201.58-23.75 198.83-23.75L198.83-23.75Q196.68-23.75 195.26-20.85 193.83-17.95 193.83-12L193.83-12Q193.83-5.85 193.93-3.93 194.03-2 194.58-0.55L194.58-0.55Q194.18-0.15 193.51 0.15 192.83 0.45 191.93 0.5L191.93 0.5Q190.83 0.5 190.08-0.23 189.33-0.95 189.33-2.2L189.33-2.2 189.33-20.05Q189.33-21.4 189.01-22 188.68-22.6 187.93-22.6L187.93-22.6Q186.98-22.6 186.63-21.9L186.63-21.9Q186.03-22.75 186.03-23.55L186.03-23.55Q186.03-24.7 186.88-25.4 187.73-26.1 189.23-26.1L189.23-26.1Q191.23-26.1 192.31-24.68 193.38-23.25 193.33-20.5L193.33-20.5Q194.18-23.25 195.88-24.7 197.58-26.15 199.98-26.15L199.98-26.15ZM220.93 0.65Q215.43 0.65 212.35-2.88 209.28-6.4 209.28-12.7L209.28-12.7Q209.28-19.05 212.35-22.6 215.43-26.15 220.93-26.15L220.93-26.15Q226.43-26.15 229.48-22.6 232.53-19.05 232.53-12.7L232.53-12.7Q232.53-6.4 229.48-2.88 226.43 0.65 220.93 0.65L220.93 0.65ZM220.93-1.25Q224.23-1.25 225.95-4.2 227.68-7.15 227.68-12.7L227.68-12.7Q227.68-18.35 225.95-21.3 224.23-24.25 220.93-24.25L220.93-24.25Q217.58-24.25 215.85-21.3 214.13-18.35 214.13-12.7L214.13-12.7Q214.13-7.15 215.85-4.2 217.58-1.25 220.93-1.25L220.93-1.25ZM252.23-26.15Q257.03-26.15 258.98-22.58 260.93-19 260.93-13.85L260.93-13.85Q260.93-6.95 258.13-3.15 255.33 0.65 250.33 0.65L250.33 0.65Q247.88 0.65 246.13-0.33 244.38-1.3 243.63-3.1L243.63-3.1 243.63 2.2Q243.63 7.35 244.38 10.05L244.38 10.05Q243.98 10.45 243.3 10.75 242.63 11.05 241.78 11.05L241.78 11.05Q240.63 11.05 239.88 10.4 239.13 9.75 239.13 8.6L239.13 8.6 239.18-19.9Q239.18-21.3 238.85-21.88 238.53-22.45 237.78-22.45L237.78-22.45Q236.83-22.45 236.48-21.75L236.48-21.75Q235.88-22.65 235.88-23.45L235.88-23.45Q235.88-24.55 236.75-25.25 237.63-25.95 239.08-25.95L239.08-25.95Q243.33-25.95 243.43-19.3L243.43-19.3Q244.63-22.55 246.83-24.35 249.03-26.15 252.23-26.15L252.23-26.15ZM249.28-1.9Q252.63-1.9 254.35-4.93 256.08-7.95 256.08-13.85L256.08-13.85Q256.08-18.2 255.03-20.83 253.98-23.45 250.98-23.45L250.98-23.45Q248.73-23.45 247.08-21.65 245.43-19.85 244.55-16.9 243.68-13.95 243.68-10.5L243.68-10.5Q243.68-6.45 244.93-4.17 246.18-1.9 249.28-1.9L249.28-1.9ZM285.62-6.6Q286.37-6.3 286.37-5.45L286.37-5.45Q286.37-4.9 286.02-4.05L286.02-4.05Q285.12-1.75 282.72-0.55 280.32 0.65 277.02 0.65L277.02 0.65Q271.47 0.65 268.3-2.8 265.12-6.25 265.12-12.65L265.12-12.65Q265.12-18.95 268.27-22.55 271.42-26.15 277.22-26.15L277.22-26.15Q281.42-26.15 284-24.25 286.57-22.35 286.57-18.85L286.57-18.85Q286.57-15.15 283.57-13.2 280.57-11.25 275.32-11.25L275.32-11.25Q272.67-11.25 270.02-11.55L270.02-11.55Q270.62-2.35 278.17-2.35L278.17-2.35Q280.87-2.35 282.85-3.48 284.82-4.6 285.62-6.6L285.62-6.6ZM277.02-24.25Q273.77-24.25 271.9-21.45 270.02-18.65 269.97-13.4L269.97-13.4Q271.02-13.3 273.32-13.2L273.32-13.2Q277.12-13.2 279.42-14.58 281.72-15.95 281.72-19.5L281.72-19.5Q281.72-22.1 280.37-23.18 279.02-24.25 277.02-24.25L277.02-24.25ZM303.87-26.15Q306.47-26.15 308.1-24.73 309.72-23.3 309.72-20.85L309.72-20.85Q309.72-19.1 308.72-18 307.72-16.9 306.32-16.9L306.32-16.9Q305.07-16.9 304.52-17.55L304.52-17.55Q305.07-18.4 305.27-19.1 305.47-19.8 305.47-20.75L305.47-20.75Q305.47-23.75 302.72-23.75L302.72-23.75Q300.57-23.75 299.15-20.85 297.72-17.95 297.72-12L297.72-12Q297.72-5.85 297.82-3.93 297.92-2 298.47-0.55L298.47-0.55Q298.07-0.15 297.4 0.15 296.72 0.45 295.82 0.5L295.82 0.5Q294.72 0.5 293.97-0.23 293.22-0.95 293.22-2.2L293.22-2.2 293.22-20.05Q293.22-21.4 292.9-22 292.57-22.6 291.82-22.6L291.82-22.6Q290.87-22.6 290.52-21.9L290.52-21.9Q289.92-22.75 289.92-23.55L289.92-23.55Q289.92-24.7 290.77-25.4 291.62-26.1 293.12-26.1L293.12-26.1Q295.12-26.1 296.2-24.68 297.27-23.25 297.22-20.5L297.22-20.5Q298.07-23.25 299.77-24.7 301.47-26.15 303.87-26.15L303.87-26.15ZM321.87-25.45Q322.72-25.45 324.17-25.5 325.62-25.55 326.47-25.6L326.47-25.6 326.42-24.4Q326.37-23.8 326.02-23.48 325.67-23.15 325.17-23.15L325.17-23.15 320.22-23.15 320.22-21.35 320.17-5.65Q320.17-2.95 322.57-2.95L322.57-2.95Q323.27-2.95 323.94-3.2 324.62-3.45 324.82-3.9L324.82-3.9Q325.42-3.1 325.42-2.2L325.42-2.2Q325.42-0.95 324.17-0.2 322.92 0.55 320.92 0.55L320.92 0.55Q318.47 0.55 317.07-1 315.67-2.55 315.67-5.3L315.67-5.3 315.67-23.15 314.92-23.15Q312.92-23.15 311.92-23L311.92-23 311.97-24.25Q312.02-24.85 312.37-25.15 312.72-25.45 313.27-25.45L313.27-25.45 315.67-25.45 315.67-29.65Q315.67-30.8 316.39-31.45 317.12-32.1 318.32-32.1L318.32-32.1Q319.72-32.1 320.87-31.1L320.87-31.1Q320.32-29.2 320.27-25.45L320.27-25.45 321.87-25.45ZM352.17-23.45L352.22-2.5Q352.22 11.55 340.22 11.55L340.22 11.55Q336.47 11.55 333.97 10.28 331.47 9 331.47 6.2L331.47 6.2Q331.47 4.75 332.39 3.78 333.32 2.8 334.82 2.8L334.82 2.8Q336.32 2.8 336.92 3.65L336.92 3.65Q336.27 4.1 335.97 4.78 335.67 5.45 335.67 6.05L335.67 6.05Q335.67 7.9 336.99 8.85 338.32 9.8 340.22 9.8L340.22 9.8Q347.97 9.8 347.97-2.25L347.97-2.25Q347.97-3.25 348.17-5.95L348.17-5.95Q347.12-2.9 344.94-1.25 342.77 0.4 339.57 0.4L339.57 0.4Q335.72 0.4 333.84-2 331.97-4.4 331.97-10L331.97-10 331.97-19.55Q331.97-23.05 331.27-25.1L331.27-25.1Q332.52-26.15 333.87-26.15L333.87-26.15Q335.02-26.15 335.74-25.48 336.47-24.8 336.47-23.65L336.47-23.65 336.47-10.6Q336.47-6.1 337.47-4.05 338.47-2 340.87-2L340.87-2Q343.82-2 345.77-4.93 347.72-7.85 347.72-13.8L347.72-13.8Q347.72-19.9 347.62-21.8 347.52-23.7 346.97-25.15L346.97-25.15Q348.12-26.15 349.57-26.15L349.57-26.15Q350.67-26.15 351.42-25.43 352.17-24.7 352.17-23.45L352.17-23.45ZM382.76 0.65Q376.36 0.65 372.86-4 369.36-8.65 369.36-17.35L369.36-17.35Q369.36-26 372.96-30.68 376.56-35.35 383.06-35.35L383.06-35.35Q385.71-35.35 388.06-34.68 390.41-34 391.84-32.8 393.26-31.6 393.26-30.1L393.26-30.1Q393.26-29 392.26-28.25 391.26-27.5 389.61-27.55L389.61-27.55Q389.21-30.4 387.54-31.9 385.86-33.4 383.11-33.4L383.11-33.4Q378.81-33.4 376.61-29.38 374.41-25.35 374.41-17.35L374.41-17.35Q374.41-9.4 376.59-5.35 378.76-1.3 383.01-1.3L383.01-1.3Q385.76-1.3 387.79-3.08 389.81-4.85 390.41-8.1L390.41-8.1 391.01-8.15Q392.36-8.15 393.29-7.55 394.21-6.95 394.21-5.8L394.21-5.8Q394.21-4.05 392.59-2.55 390.96-1.05 388.31-0.2 385.66 0.65 382.76 0.65L382.76 0.65ZM410.26 0.65Q404.76 0.65 401.68-2.88 398.61-6.4 398.61-12.7L398.61-12.7Q398.61-19.05 401.68-22.6 404.76-26.15 410.26-26.15L410.26-26.15Q415.76-26.15 418.81-22.6 421.86-19.05 421.86-12.7L421.86-12.7Q421.86-6.4 418.81-2.88 415.76 0.65 410.26 0.65L410.26 0.65ZM410.26-1.25Q413.56-1.25 415.28-4.2 417.01-7.15 417.01-12.7L417.01-12.7Q417.01-18.35 415.28-21.3 413.56-24.25 410.26-24.25L410.26-24.25Q406.91-24.25 405.18-21.3 403.46-18.35 403.46-12.7L403.46-12.7Q403.46-7.15 405.18-4.2 406.91-1.25 410.26-1.25L410.26-1.25ZM449.11-6Q449.21-2.15 449.86-0.45L449.86-0.45Q448.71 0.6 447.26 0.6L447.26 0.6Q446.11 0.6 445.36-0.08 444.61-0.75 444.61-1.9L444.61-1.9 444.61-15.2Q444.56-19.5 443.46-21.55 442.36-23.6 439.71-23.6L439.71-23.6Q438.01-23.6 436.48-22.38 434.96-21.15 433.98-18.55 433.01-15.95 433.01-12L433.01-12Q433.01-5.75 433.11-3.8 433.21-1.85 433.76-0.4L433.76-0.4Q433.36 0 432.68 0.3 432.01 0.6 431.16 0.6L431.16 0.6Q429.96 0.6 429.23-0.13 428.51-0.85 428.51-2.1L428.51-2.1 428.51-20.05Q428.46-21.45 428.13-22.03 427.81-22.6 427.11-22.6L427.11-22.6Q426.16-22.6 425.81-21.9L425.81-21.9Q425.21-22.75 425.21-23.55L425.21-23.55Q425.21-24.7 426.06-25.4 426.91-26.1 428.41-26.1L428.41-26.1Q430.41-26.1 431.48-24.73 432.56-23.35 432.56-20.7L432.56-20.7 432.56-20.1Q433.61-23 435.81-24.58 438.01-26.15 441.06-26.15L441.06-26.15Q449.11-26.15 449.11-15.8L449.11-15.8 449.11-6ZM463.65-25.45Q464.5-25.45 465.95-25.5 467.4-25.55 468.25-25.6L468.25-25.6 468.2-24.4Q468.15-23.8 467.8-23.48 467.45-23.15 466.95-23.15L466.95-23.15 462-23.15 462-21.35 461.95-5.65Q461.95-2.95 464.35-2.95L464.35-2.95Q465.05-2.95 465.73-3.2 466.4-3.45 466.6-3.9L466.6-3.9Q467.2-3.1 467.2-2.2L467.2-2.2Q467.2-0.95 465.95-0.2 464.7 0.55 462.7 0.55L462.7 0.55Q460.25 0.55 458.85-1 457.45-2.55 457.45-5.3L457.45-5.3 457.45-23.15 456.7-23.15Q454.7-23.15 453.7-23L453.7-23 453.75-24.25Q453.8-24.85 454.15-25.15 454.5-25.45 455.05-25.45L455.05-25.45 457.45-25.45 457.45-29.65Q457.45-30.8 458.18-31.45 458.9-32.1 460.1-32.1L460.1-32.1Q461.5-32.1 462.65-31.1L462.65-31.1Q462.1-29.2 462.05-25.45L462.05-25.45 463.65-25.45ZM485.1-26.15Q487.7-26.15 489.33-24.73 490.95-23.3 490.95-20.85L490.95-20.85Q490.95-19.1 489.95-18 488.95-16.9 487.55-16.9L487.55-16.9Q486.3-16.9 485.75-17.55L485.75-17.55Q486.3-18.4 486.5-19.1 486.7-19.8 486.7-20.75L486.7-20.75Q486.7-23.75 483.95-23.75L483.95-23.75Q481.8-23.75 480.38-20.85 478.95-17.95 478.95-12L478.95-12Q478.95-5.85 479.05-3.93 479.15-2 479.7-0.55L479.7-0.55Q479.3-0.15 478.63 0.15 477.95 0.45 477.05 0.5L477.05 0.5Q475.95 0.5 475.2-0.23 474.45-0.95 474.45-2.2L474.45-2.2 474.45-20.05Q474.45-21.4 474.13-22 473.8-22.6 473.05-22.6L473.05-22.6Q472.1-22.6 471.75-21.9L471.75-21.9Q471.15-22.75 471.15-23.55L471.15-23.55Q471.15-24.7 472-25.4 472.85-26.1 474.35-26.1L474.35-26.1Q476.35-26.1 477.43-24.68 478.5-23.25 478.45-20.5L478.45-20.5Q479.3-23.25 481-24.7 482.7-26.15 485.1-26.15L485.1-26.15ZM518.95-3.95Q519.5-3.15 519.5-2.25L519.5-2.25Q519.5-1.1 518.42-0.3 517.35 0.5 515.8 0.5L515.8 0.5Q513.5 0.5 512.35-1.1 511.2-2.7 511.2-6.1L511.2-6.1 511.2-6.9Q509.65-3.5 506.9-1.48 504.15 0.55 500.75 0.55L500.75 0.55Q497.85 0.55 496.15-1.03 494.45-2.6 494.45-5.25L494.45-5.25Q494.45-8.25 496.75-10.33 499.05-12.4 502.8-13.45L502.8-13.45Q506.8-14.5 510.95-14.35L510.95-14.35 510.95-15.6Q510.95-20.05 509.57-22.15 508.2-24.25 505-24.25L505-24.25Q502.95-24.25 501.55-23.3 500.15-22.35 500.15-20.25L500.15-20.25Q500.15-19.15 500.67-18.13 501.2-17.1 502.25-16.7L502.25-16.7Q501.35-15.65 499.6-15.65L499.6-15.65Q497.8-15.65 496.7-16.98 495.6-18.3 495.6-20.1L495.6-20.1Q495.6-23 498.22-24.58 500.85-26.15 505.4-26.15L505.4-26.15Q510.65-26.15 513.12-23.55 515.6-20.95 515.6-15.35L515.6-15.35 515.6-5.65Q515.6-3 517.35-3L517.35-3Q517.75-3 518.2-3.25 518.65-3.5 518.95-3.95L518.95-3.95ZM502.7-2.55Q504.55-2.55 506.5-3.98 508.45-5.4 509.75-7.73 511.05-10.05 511.1-12.65L511.1-12.65Q509.25-12.75 507.2-12.48 505.15-12.2 503.75-11.6L503.75-11.6Q501.65-10.8 500.52-9.45 499.4-8.1 499.4-6.25L499.4-6.25Q499.4-4.65 500.2-3.6 501-2.55 502.7-2.55L502.7-2.55ZM533.85 0.65Q528.25 0.65 525.15-2.78 522.05-6.2 522.05-12.65L522.05-12.65Q522.05-18.95 525.22-22.55 528.4-26.15 534.2-26.15L534.2-26.15Q538.3-26.15 540.57-24.38 542.85-22.6 542.85-19.8L542.85-19.8Q542.85-18 541.85-16.9 540.85-15.8 539.25-15.8L539.25-15.8Q537.55-15.8 536.7-16.85L536.7-16.85Q538.3-17.6 538.3-20.15L538.3-20.15Q538.3-22.25 537.05-23.25 535.8-24.25 533.75-24.25L533.75-24.25Q530.65-24.25 528.77-21.43 526.9-18.6 526.9-13.35L526.9-13.35Q526.9-7.65 529.12-5 531.35-2.35 535.1-2.35L535.1-2.35Q537.85-2.35 539.8-3.7 541.75-5.05 542.35-7.5L542.35-7.5Q543.1-7.15 543.1-6.1L543.1-6.1Q543.1-5.55 542.9-4.8L542.9-4.8Q542.1-2.2 539.7-0.78 537.3 0.65 533.85 0.65L533.85 0.65ZM556.09-25.45Q556.94-25.45 558.39-25.5 559.84-25.55 560.69-25.6L560.69-25.6 560.64-24.4Q560.59-23.8 560.24-23.48 559.89-23.15 559.39-23.15L559.39-23.15 554.44-23.15 554.44-21.35 554.39-5.65Q554.39-2.95 556.79-2.95L556.79-2.95Q557.49-2.95 558.17-3.2 558.84-3.45 559.04-3.9L559.04-3.9Q559.64-3.1 559.64-2.2L559.64-2.2Q559.64-0.95 558.39-0.2 557.14 0.55 555.14 0.55L555.14 0.55Q552.69 0.55 551.29-1 549.89-2.55 549.89-5.3L549.89-5.3 549.89-23.15 549.14-23.15Q547.14-23.15 546.14-23L546.14-23 546.19-24.25Q546.24-24.85 546.59-25.15 546.94-25.45 547.49-25.45L547.49-25.45 549.89-25.45 549.89-29.65Q549.89-30.8 550.62-31.45 551.34-32.1 552.54-32.1L552.54-32.1Q553.94-32.1 555.09-31.1L555.09-31.1Q554.54-29.2 554.49-25.45L554.49-25.45 556.09-25.45ZM573.59 0.65Q568.89 0.65 566.54-1 564.19-2.65 564.19-5.35L564.19-5.35Q564.19-6.65 564.87-7.5 565.54-8.35 566.99-8.35L566.99-8.35Q567.24-8.35 567.84-8.25L567.84-8.25Q567.69-7.6 567.69-7L567.69-7Q567.69-6.4 567.74-6.05L567.74-6.05Q567.89-3.9 569.54-2.63 571.19-1.35 574.04-1.35L574.04-1.35Q576.69-1.35 578.31-2.33 579.94-3.3 579.94-5.1L579.94-5.1Q579.94-6.35 579.26-7.23 578.59-8.1 577.56-8.7 576.54-9.3 574.69-10.15L574.69-10.15 573.14-10.85Q570.39-12.15 568.89-13.08 567.39-14 566.29-15.6 565.19-17.2 565.19-19.55L565.19-19.55Q565.19-22.9 567.76-24.55 570.34-26.2 574.34-26.2L574.34-26.2Q578.49-26.2 580.84-24.9 583.19-23.6 583.19-21.2L583.19-21.2Q583.19-20.2 582.66-19.53 582.14-18.85 581.04-18.75L581.04-18.75Q580.79-18.7 580.34-18.7L580.34-18.7Q579.84-18.7 579.54-18.8L579.54-18.8Q579.59-19.05 579.59-19.7L579.59-19.7Q579.59-20.5 579.39-21.05L579.39-21.05Q579.19-22.6 577.81-23.43 576.44-24.25 574.19-24.25L574.19-24.25Q572.09-24.25 570.72-23.45 569.34-22.65 569.34-20.95L569.34-20.95Q569.34-19.5 570.16-18.45 570.99-17.4 572.14-16.73 573.29-16.05 575.69-14.9L575.69-14.9 576.64-14.45Q579.14-13.25 580.62-12.35 582.09-11.45 583.14-10.05 584.19-8.65 584.19-6.65L584.19-6.65Q584.19-3.65 581.66-1.5 579.14 0.65 573.59 0.65L573.59 0.65Z" opacity="1" transform="matrix(1,0,0,1,0,0)" fill="#f9d264" class="slogan-text-1" data-fill-palette-color="secondary" id="text-1"></path></svg></g></svg></g></svg></g></svg></g><g transform="matrix(1,0,0,1,54.7856,0)"><svg viewBox="0 0 50.4288 32.65569553653896" height="32.65569553653896" width="50.4288"><g><svg xmlns="http://www.w3.org/2000/svg" xmlns:xlink="http://www.w3.org/1999/xlink" version="1.1" x="8" y="0" viewBox="0 1.353 89.863 85.235" enable-background="new 0 0 90 90" xml:space="preserve" height="32.65569553653896" width="34.4288" class="icon-icon-0" data-fill-palette-color="accent" id="icon-0"><g fill="#f9d264" data-fill-palette-color="accent"><polygon fill-rule="evenodd" clip-rule="evenodd" points="75.039,82.882 58.363,82.882 58.363,56.941 32.422,56.941 32.422,82.882    15.745,82.882 15.745,45.823 12.039,45.823 12.039,86.588 36.128,86.588 36.128,60.647 54.657,60.647 54.657,86.588 78.745,86.588    78.745,45.823 75.039,45.823  " fill="#f9d264" data-fill-palette-color="accent"></polygon><polygon fill-rule="evenodd" clip-rule="evenodd" points="48.424,4.027 48.478,3.973 45.858,1.353 28.716,18.495 28.716,5.059    25.01,5.059 25.01,22.201 0,47.211 2.62,49.831 45.804,6.648 87.242,49.831 89.863,47.211  " fill="#f9d264" data-fill-palette-color="accent"></polygon></g></svg></g></svg></g><g><rect width="53.77993163001868" height="6.449778305781585" y="25.205917230757372" x="105.21440000000001" fill="#f9d264" data-fill-palette-color="accent"></rect><rect width="53.77993163001868" height="6.449778305781585" y="25.205917230757372" x="1.005668369981322" fill="#f9d264" data-fill-palette-color="accent"></rect><rect width="53.77993163001868" height="6.449778305781585" y="12.306360619194201" x="105.21440000000001" fill="#f9d264" data-fill-palette-color="accent"></rect><rect width="53.77993163001868" height="6.449778305781585" y="12.306360619194201" x="1.005668369981322" fill="#f9d264" data-fill-palette-color="accent"></rect></g></svg></g></svg></g></svg></g><defs></defs></svg><rect width="320" height="360" fill="none" stroke="none" visibility="hidden"></rect></g></svg></g></svg>